<mxfile host="app.diagrams.net" modified="2022-07-02T07:05:57.215Z" agent="5.0 (Macintosh; Intel Mac OS X 10_15_7) AppleWebKit/537.36 (KHTML, like Gecko) Chrome/91.0.4472.114 Safari/537.36" etag="dPMI_G029WhGXMWuUg5J" version="20.0.4" type="github">
  <diagram id="XmzOd0i7GsU5kK0hU3oJ" name="Page-1">
    <mxGraphModel dx="786" dy="423" grid="1" gridSize="10" guides="1" tooltips="1" connect="1" arrows="1" fold="1" page="1" pageScale="1" pageWidth="850" pageHeight="1100" math="0" shadow="0">
      <root>
        <mxCell id="0" />
        <mxCell id="1" parent="0" />
        <mxCell id="6_f2T-xykKqWB49IiJlx-2" value="Client" style="ellipse;shape=cloud;whiteSpace=wrap;html=1;fillColor=#dae8fc;strokeColor=#6c8ebf;" parent="1" vertex="1">
          <mxGeometry x="318" y="77" width="120" height="80" as="geometry" />
        </mxCell>
        <mxCell id="6_f2T-xykKqWB49IiJlx-3" value="Controller" style="rounded=1;whiteSpace=wrap;html=1;fillColor=#fff2cc;strokeColor=#d6b656;" parent="1" vertex="1">
          <mxGeometry x="325" y="220" width="120" height="60" as="geometry" />
        </mxCell>
        <mxCell id="6_f2T-xykKqWB49IiJlx-4" value="" style="endArrow=classic;html=1;rounded=0;exitX=0.55;exitY=0.95;exitDx=0;exitDy=0;exitPerimeter=0;" parent="1" source="6_f2T-xykKqWB49IiJlx-2" target="6_f2T-xykKqWB49IiJlx-3" edge="1">
          <mxGeometry width="50" height="50" relative="1" as="geometry">
            <mxPoint x="380" y="250" as="sourcePoint" />
            <mxPoint x="430" y="200" as="targetPoint" />
          </mxGeometry>
        </mxCell>
        <mxCell id="6_f2T-xykKqWB49IiJlx-5" value="Service Layer" style="rounded=1;whiteSpace=wrap;html=1;fillColor=#f8cecc;strokeColor=#b85450;" parent="1" vertex="1">
          <mxGeometry x="325" y="353" width="120" height="60" as="geometry" />
        </mxCell>
        <mxCell id="6_f2T-xykKqWB49IiJlx-8" value="Entity/Model" style="rounded=1;whiteSpace=wrap;html=1;fillColor=#e1d5e7;strokeColor=#9673a6;" parent="1" vertex="1">
          <mxGeometry x="325" y="495" width="120" height="60" as="geometry" />
        </mxCell>
        <mxCell id="6_f2T-xykKqWB49IiJlx-10" value="" style="endArrow=classic;startArrow=classic;html=1;rounded=0;entryX=0.5;entryY=1;entryDx=0;entryDy=0;exitX=0.5;exitY=0;exitDx=0;exitDy=0;" parent="1" source="6_f2T-xykKqWB49IiJlx-5" target="6_f2T-xykKqWB49IiJlx-3" edge="1">
          <mxGeometry width="50" height="50" relative="1" as="geometry">
            <mxPoint x="385" y="350" as="sourcePoint" />
            <mxPoint x="430" y="370" as="targetPoint" />
          </mxGeometry>
        </mxCell>
        <mxCell id="6_f2T-xykKqWB49IiJlx-11" value="" style="endArrow=classic;startArrow=classic;html=1;rounded=0;entryX=0.5;entryY=1;entryDx=0;entryDy=0;exitX=0.5;exitY=0;exitDx=0;exitDy=0;" parent="1" source="6_f2T-xykKqWB49IiJlx-8" target="6_f2T-xykKqWB49IiJlx-5" edge="1">
          <mxGeometry width="50" height="50" relative="1" as="geometry">
            <mxPoint x="385" y="500" as="sourcePoint" />
            <mxPoint x="430" y="370" as="targetPoint" />
          </mxGeometry>
        </mxCell>
        <mxCell id="6_f2T-xykKqWB49IiJlx-12" value="Repository Classes&lt;br&gt;( extending CRUD services, Repository per service )" style="rounded=1;whiteSpace=wrap;html=1;fillColor=#dae8fc;strokeColor=#6c8ebf;" parent="1" vertex="1">
          <mxGeometry x="50" y="346" width="160" height="70" as="geometry" />
        </mxCell>
        <mxCell id="6_f2T-xykKqWB49IiJlx-13" value="" style="endArrow=classic;startArrow=classic;html=1;rounded=0;" parent="1" source="6_f2T-xykKqWB49IiJlx-12" target="6_f2T-xykKqWB49IiJlx-5" edge="1">
          <mxGeometry width="50" height="50" relative="1" as="geometry">
            <mxPoint x="380" y="400" as="sourcePoint" />
            <mxPoint x="430" y="350" as="targetPoint" />
          </mxGeometry>
        </mxCell>
        <mxCell id="6_f2T-xykKqWB49IiJlx-14" value="Dependency Injection ( using @Autowired )" style="text;html=1;strokeColor=none;fillColor=none;align=center;verticalAlign=middle;whiteSpace=wrap;rounded=0;" parent="1" vertex="1">
          <mxGeometry x="227" y="346" width="90" height="30" as="geometry" />
        </mxCell>
        <mxCell id="6_f2T-xykKqWB49IiJlx-15" value="DB" style="shape=cylinder3;whiteSpace=wrap;html=1;boundedLbl=1;backgroundOutline=1;size=15;fillColor=#ffe6cc;strokeColor=#d79b00;" parent="1" vertex="1">
          <mxGeometry x="600" y="400" width="60" height="80" as="geometry" />
        </mxCell>
        <mxCell id="6_f2T-xykKqWB49IiJlx-17" value="" style="endArrow=classic;startArrow=classic;html=1;rounded=0;exitX=1;exitY=0.5;exitDx=0;exitDy=0;entryX=0.5;entryY=1;entryDx=0;entryDy=0;entryPerimeter=0;edgeStyle=orthogonalEdgeStyle;" parent="1" source="6_f2T-xykKqWB49IiJlx-8" target="6_f2T-xykKqWB49IiJlx-15" edge="1">
          <mxGeometry width="50" height="50" relative="1" as="geometry">
            <mxPoint x="490" y="510" as="sourcePoint" />
            <mxPoint x="540" y="460" as="targetPoint" />
          </mxGeometry>
        </mxCell>
        <mxCell id="6_f2T-xykKqWB49IiJlx-18" value="" style="endArrow=classic;startArrow=classic;html=1;rounded=0;exitX=1;exitY=0.5;exitDx=0;exitDy=0;entryX=0.5;entryY=0;entryDx=0;entryDy=0;entryPerimeter=0;edgeStyle=orthogonalEdgeStyle;" parent="1" source="6_f2T-xykKqWB49IiJlx-5" target="6_f2T-xykKqWB49IiJlx-15" edge="1">
          <mxGeometry width="50" height="50" relative="1" as="geometry">
            <mxPoint x="380" y="410" as="sourcePoint" />
            <mxPoint x="430" y="360" as="targetPoint" />
          </mxGeometry>
        </mxCell>
        <mxCell id="6_f2T-xykKqWB49IiJlx-19" value="HTTPS Request" style="text;html=1;strokeColor=none;fillColor=none;align=center;verticalAlign=middle;whiteSpace=wrap;rounded=0;" parent="1" vertex="1">
          <mxGeometry x="386" y="170" width="60" height="30" as="geometry" />
        </mxCell>
        <mxCell id="6_f2T-xykKqWB49IiJlx-20" value="JPA/Spring Data" style="text;html=1;strokeColor=none;fillColor=none;align=center;verticalAlign=middle;whiteSpace=wrap;rounded=0;" parent="1" vertex="1">
          <mxGeometry x="520" y="535" width="60" height="30" as="geometry" />
        </mxCell>
      </root>
    </mxGraphModel>
  </diagram>
</mxfile>
